<?xml version="1.0" encoding="utf-8"?>
<svg version="1.1" id="Layer_1" xmlns="http://www.w3.org/2000/svg" x="0px" y="0px" width="100%" viewBox="0 0 747 680" enable-background="new 0 0 747 680">
  <path fill="#FEFEFE" opacity="1.000000" stroke="none" d=" M556.531372,1.000000 C557.005737,8.473258 556.879822,15.949993 557.077026,23.418194 C557.165161,26.756121 556.304321,28.147194 552.659363,28.079079 C541.536377,27.871220 530.404480,27.868624 519.281616,28.079401 C515.572815,28.149683 514.847290,26.613081 514.928284,23.359304 C515.105835,16.222549 514.985596,9.078383 514.993530,1.468622 C528.687561,1.000000 542.375122,1.000000 556.531372,1.000000 z"/>
  <path fill="#FEFEFE" opacity="1.000000" stroke="none" d=" M1.000000,29.468658 C2.004436,30.120989 3.861297,31.226576 3.881873,32.365345 C4.095232,44.173939 4.068494,55.988586 3.917772,67.799126 C3.904171,68.864876 2.560439,69.913651 1.417210,70.985153 C1.000000,57.312439 1.000000,43.624878 1.000000,29.468658 z"/>
  <path fill="#FEFEFE" opacity="1.000000" stroke="none" d=" M1.000005,624.468628 C2.004445,625.121033 3.861306,626.226624 3.881882,627.365417 C4.095234,639.174011 4.068492,650.988586 3.917772,662.799072 C3.904172,663.864807 2.560440,664.913635 1.417211,665.985107 C1.000000,652.312439 1.000000,638.624878 1.000005,624.468628 z"/>
  <path fill="#FEFEFE" opacity="1.000000" stroke="none" d=" M3.500000,1.000000 C4.005368,8.610818 4.119461,16.224522 3.917615,23.829842 C3.880522,25.227438 2.561647,26.591013 1.417209,27.985146 C1.000000,19.833334 0.993550,11.666657 1.006484,3.500012 C1.008587,2.171866 0.507050,0.372308 3.500000,1.000000 z"/>
  <path fill="#FDFDFD" opacity="1.000000" stroke="none" d="M 181.773 678.125 C 182.527 678.152 165.55 678.202 166.395 678.158 C 171.51 677.892 176.65 677.941 181.773 678.125 Z"/>
  <path opacity="1.000000" stroke="none" d="M 594.387 667.355 C 592.168 667.385 590.628 667.011 589.141 667.011 C 440.273 666.996 291.405 666.993 142.537 667.032 C 140.989 667.033 139.441 667.612 137.467 667.989 C 132.717 667.457 128.393 666.856 124.069 666.255 C 122.588 665.892 121.106 665.528 118.926 664.977 C 115.339 663.846 112.343 663.149 109.588 661.912 C 103.334 659.105 97.199 656.032 91.016 653.068 C 90.504 652.425 89.993 651.781 88.857 651.064 C 87.058 649.956 85.884 648.922 84.69 647.568 C 83.727 646.528 81.952 645.168 81.865 644.832 C 81.165 644.343 79.977 644.07 80.012 643.745 C 79.671 643.293 78.959 643.08 79.001 642.754 C 78.667 642.303 77.935 642.08 78.038 641.731 C 76.734 640.277 73.947 638.086 73.987 637.759 C 73.658 637.302 72.959 637.08 72.994 636.755 C 72.327 636.294 72.571 636.434 71.961 636.015 C 71.994 636.005 70.931 634.182 70.917 633.869 C 70.256 632.803 69.609 632.05 68.642 631.161 C 66.596 629.013 64.87 627.002 63.144 624.991 C 63.06 624.512 62.975 624.033 62.746 622.901 C 62.049 621.841 61.497 621.435 60.973 621.017 C 61.001 621.005 60.973 621.059 61.086 620.705 C 60.771 619.912 60.344 619.472 59.952 619.019 C 59.989 619.004 59.945 619.069 60.052 618.701 C 58.746 615.899 57.671 613.571 56.293 611.123 C 56.668 611.788 56.268 611.102 56.071 610.698 C 55.434 608.894 54.96 607.618 54.236 606.174 C 54.397 606.256 54.234 606.104 54.064 605.667 C 52.401 595.535 50.621 585.806 48.909 575.61 C 48.984 426.732 48.992 278.322 48.993 129.912 C 48.993 127.25 48.899 124.588 48.887 121.486 C 49.196 118.264 49.212 115.428 49.787 112.711 C 51.413 105.024 53.267 97.386 55.011 89.376 C 58.227 83.013 61.464 77.001 64.843 70.659 C 65.808 69.566 66.64 68.811 67.455 68.039 C 74.936 60.955 82.414 53.868 90.184 46.745 C 91.012 46.151 91.55 45.594 92.437 44.987 C 95.548 43.273 98.312 41.61 101.465 39.979 C 110.243 37.345 118.632 34.678 127.461 32.052 C 134.205 31.728 140.508 31.049 146.812 31.046 C 293.555 30.987 440.298 31.001 587.04 30.997 C 591.032 30.997 595.024 30.946 599.016 30.919 C 599.186 30.933 599.355 30.947 600.094 30.973 C 602.098 31.047 603.533 31.109 605.151 31.488 C 612.595 33.847 619.855 35.89 627.437 38.066 C 632.159 40.472 636.559 42.744 640.959 45.016 C 641.413 45.345 641.867 45.673 642.794 46.358 C 645.848 48.644 648.678 50.318 650.961 52.552 C 657.123 58.58 663.053 64.846 669.167 71.361 C 673.893 81.764 678.529 91.823 683.164 101.883 C 683.299 102.812 683.435 103.742 683.858 105.189 C 684.201 106.113 684.258 106.52 684.282 107.319 C 684.275 108.501 684.3 109.289 684.206 110.379 C 684.463 111.424 684.84 112.166 685.218 112.907 C 685.243 114.018 685.268 115.129 685.18 116.984 C 685.325 118.789 685.581 119.851 685.504 121.187 C 685.096 123.12 684.957 124.779 684.957 126.437 C 684.947 275.125 684.947 423.812 684.954 572.499 C 684.954 574.661 685.047 576.823 685.055 579.357 C 685.121 580.464 685.229 581.198 685.269 582.317 C 685.203 583.476 685.205 584.252 685.127 585.374 C 684.778 586.794 684.508 587.867 684.216 589.297 C 684.244 590.127 684.294 590.6 684.259 591.372 C 684.168 592.087 684.163 592.501 684.158 592.916 C 683.793 593.738 683.428 594.561 682.983 596.077 C 681.276 601.224 679.86 605.768 677.968 610.105 C 675.904 614.834 673.398 619.371 670.747 624.079 C 666.109 629.454 662.163 635.089 657.407 639.928 C 653.049 644.362 647.816 647.937 642.969 651.89 C 642.395 652.122 641.821 652.353 640.822 652.876 C 639.957 653.486 639.517 653.805 638.797 654.158 C 638.35 654.487 638.069 655.04 637.722 654.949 C 636.929 655.27 636.074 656.063 635.706 655.962 C 632.901 657.268 630.465 658.675 628.016 660.047 C 628.004 660.011 615.527 663.173 609.681 664.952 C 608.378 665.349 609.654 665.002 605.978 666.265 M 309.415 375.907 C 300.783 394.993 292.151 414.079 283.181 433.912 C 282.005 431.919 281.325 430.981 280.859 429.946 C 273.63 413.893 266.372 397.852 259.234 381.758 C 246.513 353.078 233.94 324.332 221.173 295.671 C 204.884 259.104 188.361 222.64 172.191 186.02 C 169.032 178.867 165.661 173.262 156.6 173.434 C 140.988 173.729 125.367 173.516 109.204 173.516 C 109.345 175.224 109.571 176.802 109.589 178.381 C 109.65 183.703 110.168 189.088 109.547 194.334 C 108.034 207.121 108.805 219.712 113.546 231.604 C 119.997 247.786 127.116 263.715 134.341 279.574 C 150.382 314.785 166.776 349.837 182.826 385.045 C 202.324 427.818 221.587 470.699 241.021 513.502 C 245.034 522.34 248.744 524.299 258.224 523.334 C 259.546 523.2 260.888 523.215 262.22 523.23 C 278.035 523.412 293.851 523.558 309.665 523.824 C 316.382 523.937 321.559 521.919 324.542 515.318 C 334.873 492.459 345.369 469.676 355.815 446.869 C 358.725 440.515 361.68 434.18 365.125 426.735 C 370.89 438.822 376.019 449.613 381.181 460.389 C 389.653 478.075 398.096 495.776 406.662 513.417 C 409.031 518.296 411.988 522.919 418.282 522.968 C 439.777 523.136 461.274 523.238 482.769 523.116 C 484.356 523.107 486.716 521.482 487.398 520.001 C 507.273 476.851 526.916 433.594 546.733 390.417 C 566.693 346.929 585.744 302.978 607.217 260.247 C 621.215 232.391 623.632 203.627 622.401 173.091 C 620.558 173.091 618.769 173.091 616.98 173.091 C 603.981 173.091 590.944 173.695 577.994 172.892 C 568.338 172.293 563.574 176.346 559.92 184.776 C 545.39 218.298 530.381 251.613 515.485 284.977 C 497.614 325.005 479.687 365.008 461.762 405.012 C 457.71 414.053 453.569 423.054 448.956 433.202 C 447.22 430.612 445.821 429.038 444.989 427.206 C 433.525 401.961 422.275 376.617 410.644 351.449 C 407.433 344.502 405.597 338.015 408.969 330.558 C 418.668 309.108 428.011 287.497 437.674 266.031 C 442.305 255.742 448.031 245.9 452.05 235.392 C 459.63 215.576 456.363 194.663 456.849 174.15 C 456.854 173.909 456.459 173.659 455.978 173.091 C 441.432 173.091 426.599 173.545 411.812 172.924 C 402.67 172.54 398.092 176.356 394.559 184.454 C 376.157 226.628 357.297 268.602 338.582 310.64 C 328.994 332.177 319.375 353.702 309.415 375.907 Z" style="fill: rgb(74, 70, 73);"/>
  <path fill="#FDFDFD" opacity="1.000000" stroke="none" d=" M123.884613,666.483398 C128.392822,666.855713 132.717072,667.456665 137.932892,668.112122 C146.549698,668.287231 154.274933,668.407898 162.000153,668.528564 C161.926025,676.870911 162.868103,675.957092 154.617538,675.992310 C146.353577,676.027588 138.089142,676.036621 129.825302,675.990051 C120.953217,675.940063 122.099854,677.017334 122.000717,667.518677 C122.567619,666.951477 123.134132,666.831787 123.884613,666.483398 z"/>
  <path fill="#FDFDFD" opacity="1.000000" stroke="none" d=" M109.531113,667.046570 C109.832726,677.469421 111.429283,675.839722 100.958954,675.992493 C97.629784,676.041016 94.299324,676.000000 90.505508,676.000000 C89.963913,665.201477 89.024216,667.191589 98.705856,667.011414 C102.157120,666.947144 105.610794,667.012085 109.531113,667.046570 z"/>
  <path fill="#FDFDFD" opacity="1.000000" stroke="none" d=" M119.549606,667.038208 C119.999344,668.042175 120.012337,669.022522 119.997620,670.002502 C119.952774,672.988281 120.927643,676.099243 115.711113,676.171387 C110.420792,676.244507 110.877007,673.269226 110.996941,669.929688 C111.020378,669.277100 111.000443,668.622864 111.000839,667.522827 C113.700836,667.055725 116.400513,667.035156 119.549606,667.038208 z"/>
  <path fill="#FAFAFA" opacity="1.000000" stroke="none" d=" M48.540985,108.009811 C48.814735,108.585617 48.779835,109.139854 48.580101,109.919365 C47.972141,109.661858 47.529015,109.179092 47.040462,108.354950 C47.407471,108.005142 47.819897,107.996704 48.540985,108.009811 z"/>
  <path fill="#FDFDFD" opacity="1.000000" stroke="none" d=" M175.145508,668.437500 C184.803635,668.420898 194.461761,668.404236 204.568451,668.535217 C204.968109,676.539612 204.968109,676.539612 196.625778,675.603577 C196.303055,674.182861 195.954239,672.647217 195.605408,671.111572 C195.512573,674.942078 193.740540,676.245972 189.814072,676.097290 C181.414581,675.779297 172.994659,675.999939 163.995132,675.999939 C163.995132,673.384583 163.995132,671.438293 163.990128,669.087463 C166.977646,668.571533 169.970184,668.460083 173.520081,668.579102 C174.433472,668.685547 174.789490,668.561523 175.145508,668.437500 z"/>
  <path fill="#FDFDFD" opacity="1.000000" stroke="none" d=" M575.015625,668.668213 C576.732483,668.572998 578.449280,668.477783 580.580261,668.924927 C580.996277,671.644836 580.998169,673.822449 581.000000,676.000000 C579.285583,676.000000 577.571228,676.000000 575.428406,675.585693 C575.005249,673.003601 575.010437,670.835938 575.015625,668.668213 z"/>
  <path fill="#FDFDFD" opacity="1.000000" stroke="none" d=" M581.399963,676.000000 C580.998169,673.822449 580.996277,671.644836 580.989258,669.068054 C582.696960,668.575317 584.409790,668.481750 586.528687,668.534912 C586.934753,668.681519 586.837891,668.873779 586.437134,669.056824 C585.690979,671.493225 585.345459,673.746643 585.000000,676.000000 C583.933289,676.000000 582.866638,676.000000 581.399963,676.000000 z"/>
  <path fill="#FDFDFD" opacity="1.000000" stroke="none" d=" M574.630554,668.525696 C575.010437,670.835938 575.005249,673.003601 575.000000,675.585693 C573.933289,676.000000 572.866638,676.000000 571.399963,675.585754 C571.004883,673.004517 571.009766,670.837463 571.014709,668.670471 C572.091614,668.574707 573.168579,668.478943 574.630554,668.525696 z"/>
  <path fill="#FDFDFD" opacity="1.000000" stroke="none" d=" M570.626282,668.528931 C571.009766,670.837463 571.004883,673.004517 571.000000,675.585815 C569.933289,675.999390 568.866638,675.998779 567.399963,675.996643 C566.998291,673.823853 566.996521,671.652588 566.989685,669.083374 C568.068970,668.586121 569.153442,668.486755 570.626282,668.528931 z"/>
  <path fill="#FDFDFD" opacity="1.000000" stroke="none" d=" M588.990723,669.074463 C589.747253,668.573730 590.508423,668.470032 591.641235,668.486328 C592.137146,670.838928 592.261414,673.071350 592.427734,676.058289 C587.456604,675.634399 589.607239,671.734497 588.990723,669.074463 z"/>
  <path fill="#FDFDFD" opacity="1.000000" stroke="none" d=" M585.378296,675.914795 C585.345459,673.746643 585.690979,671.493225 586.387878,669.152527 C586.411743,671.320007 586.084167,673.574829 585.378296,675.914795 z"/>
  <path opacity="1.000000" stroke="none" d=" M309.592285,375.569611 C319.374969,353.701569 328.993683,332.177368 338.582214,310.639740 C357.297150,268.602448 376.157135,226.628296 394.558899,184.454300 C398.092438,176.355957 402.669891,172.539902 411.811615,172.923843 C426.599426,173.544922 441.432434,173.090942 455.978363,173.090942 C456.458984,173.658966 456.854279,173.909332 456.848572,174.150192 C456.362762,194.663162 459.630249,215.575729 452.050110,235.392090 C448.030762,245.899689 442.305237,255.742188 437.673859,266.030731 C428.010742,287.497192 418.668152,309.108154 408.968750,330.557953 C405.596802,338.014893 407.433472,344.502472 410.643677,351.449005 C422.274536,376.616974 433.524811,401.960663 444.989471,427.205872 C445.821381,429.037750 447.220276,430.612152 448.955872,433.202057 C453.568695,423.054382 457.710297,414.053345 461.761597,405.011810 C479.686554,365.007721 497.614014,325.004730 515.485352,284.976654 C530.381104,251.613373 545.389648,218.297974 559.920349,184.775879 C563.574280,176.346405 568.338013,172.292709 577.994263,172.891907 C590.943909,173.695480 603.980896,173.090942 616.980408,173.090942 C618.769043,173.090942 620.557739,173.090942 622.401184,173.090942 C623.632385,203.626831 621.214600,232.390625 607.216675,260.247070 C585.744019,302.978363 566.693054,346.929291 546.733398,390.417297 C526.916443,433.594299 507.273468,476.851196 487.398010,520.001160 C486.715790,521.482300 484.355560,523.107483 482.768677,523.116455 C461.273865,523.238037 439.777008,523.136169 418.281616,522.967896 C411.987701,522.918579 409.030762,518.296387 406.661621,513.416870 C398.096222,495.775787 389.653107,478.075317 381.181244,460.388916 C376.019470,449.612885 370.889648,438.821503 365.124573,426.735291 C361.680389,434.180359 358.725372,440.514740 355.814728,446.869476 C345.368866,469.675598 334.873047,492.459290 324.542206,515.317505 C321.558868,521.918518 316.382294,523.936523 309.665436,523.823730 C293.851379,523.558167 278.035339,523.412476 262.219971,523.230164 C260.888092,523.214783 259.546173,523.199585 258.224182,523.334106 C248.743790,524.298523 245.033722,522.340149 241.021149,513.502319 C221.587463,470.699005 202.324066,427.818237 182.825607,385.044556 C166.775986,349.836548 150.382217,314.785370 134.340836,279.573639 C127.116112,263.714935 119.997261,247.786362 113.545761,231.604279 C108.804626,219.712250 108.033951,207.120819 109.546860,194.334488 C110.167648,189.087845 109.649574,183.702789 109.588684,178.381393 C109.570610,176.801514 109.345299,175.223999 109.204254,173.515778 C125.366859,173.515778 140.988022,173.729492 156.599533,173.433960 C165.661407,173.262405 169.031754,178.866577 172.190613,186.019989 C188.361435,222.639633 204.884155,259.103668 221.173080,295.671448 C233.939621,324.331665 246.512787,353.077972 259.233978,381.758484 C266.372345,397.852234 273.630463,413.892883 280.859467,429.946320 C281.325287,430.980804 282.004700,431.919098 283.180908,433.912476 C292.151154,414.078552 300.782898,394.992950 309.592285,375.569611 z" style="fill: rgb(245, 245, 245);"/>
  <path fill="#3D1F39" opacity="1.000000" stroke="none" d=" M605.151367,31.487839 C612.260742,33.201542 619.554199,35.232067 626.980957,37.597290 C619.854675,35.889549 612.595032,33.847103 605.151367,31.487839 z"/>
  <path fill="#DCDCDC" opacity="1.000000" stroke="none" d=" M685.269165,582.316772 C685.442261,582.831543 685.547913,583.730347 685.430298,584.828247 C685.205200,584.251892 685.203430,583.476257 685.269165,582.316772 z"/>
  <path fill="#DCDCDC" opacity="1.000000" stroke="none" d=" M684.281738,107.319221 C684.479004,107.846527 684.644104,108.767220 684.567505,109.882339 C684.300415,109.288712 684.274963,108.500656 684.281738,107.319221 z"/>
  <path fill="#DCDCDC" opacity="1.000000" stroke="none" d=" M684.215881,589.297485 C684.407043,589.535034 684.576538,590.129272 684.545166,590.897827 C684.294312,590.599548 684.244263,590.126831 684.215881,589.297485 z"/>
  <path fill="#A7A7A7" opacity="1.000000" stroke="none" d=" M344.822235,668.331299 C344.789642,668.562073 344.433350,668.686218 343.964050,668.623901 C344.066803,668.366638 344.282654,668.295715 344.822235,668.331299 z"/>
  <path fill="#A7A7A7" opacity="1.000000" stroke="none" d=" M387.822235,668.331299 C387.789642,668.562073 387.433350,668.686218 386.964050,668.623901 C387.066803,668.366638 387.282654,668.295715 387.822235,668.331299 z"/>
  <path fill="#A7A7A7" opacity="1.000000" stroke="none" d=" M429.822235,668.331299 C429.789642,668.562073 429.433350,668.686218 428.964050,668.623901 C429.066803,668.366638 429.282654,668.295715 429.822235,668.331299 z"/>
  <path fill="#A7A7A7" opacity="1.000000" stroke="none" d=" M174.822021,668.331055 C174.789490,668.561523 174.433472,668.685547 173.964432,668.623352 C174.067139,668.366211 174.282852,668.295410 174.822021,668.331055 z"/>
  <path fill="#A7A7A7" opacity="1.000000" stroke="none" d=" M472.822235,668.331299 C472.789642,668.562073 472.433350,668.686218 471.964050,668.623901 C472.066803,668.366638 472.282654,668.295715 472.822235,668.331299 z"/>
  <path fill="#A7A7A7" opacity="1.000000" stroke="none" d=" M217.822235,668.331360 C217.789688,668.562073 217.433426,668.686218 216.964066,668.623901 C217.066818,668.366638 217.282669,668.295715 217.822235,668.331360 z"/>
  <path fill="#A7A7A7" opacity="1.000000" stroke="none" d=" M514.822205,668.331299 C514.789612,668.562073 514.433350,668.686218 513.964111,668.623901 C514.066895,668.366638 514.282715,668.295715 514.822205,668.331299 z"/>
  <path fill="#A7A7A7" opacity="1.000000" stroke="none" d=" M259.822235,668.331299 C259.789642,668.562073 259.433350,668.686218 258.964050,668.623901 C259.066803,668.366638 259.282654,668.295715 259.822235,668.331299 z"/>
  <path fill="#A7A7A7" opacity="1.000000" stroke="none" d=" M557.822021,668.330994 C557.789490,668.561462 557.433472,668.685547 556.964478,668.623291 C557.067200,668.366211 557.282898,668.295410 557.822021,668.330994 z"/>
  <path fill="#A7A7A7" opacity="1.000000" stroke="none" d=" M302.822235,668.331299 C302.789642,668.562073 302.433350,668.686218 301.964050,668.623901 C302.066803,668.366638 302.282654,668.295715 302.822235,668.331299 z"/>
</svg>